<svg width="13" height="27" viewBox="0 0 13 27" fill="none" xmlns="http://www.w3.org/2000/svg">
<path d="M6 1C6 2.681 6 4.362 6 6.04299C6 7.69026 5.86874 9.31655 5.61111 10.9604C5.45344 11.9664 5 12.9928 5 14" stroke="white" stroke-width="2" stroke-linecap="round"/>
<path d="M1 11.1926C1.3206 13.1162 1.58452 14.9218 1.73654 16.9149C1.90091 19.0699 2.35089 21.2233 2.92634 23.3059C3.09192 23.9051 3.24184 24.5509 3.75353 24.9489C4.1924 25.2902 4.7053 24.9237 4.92067 24.5183C6.17254 22.1618 6.89063 19.5062 7.95749 17.0622C9.19402 14.2296 10.4584 11.4105 11.6062 8.54102" stroke="white" stroke-width="2" stroke-linecap="round"/>
</svg>
